<?xml version="1.0" standalone="no"?>
<!DOCTYPE svg PUBLIC "-//W3C//DTD SVG 20010904//EN"
 "http://www.w3.org/TR/2001/REC-SVG-20010904/DTD/svg10.dtd">
<svg version="1.0" xmlns="http://www.w3.org/2000/svg"
 width="1563.000000pt" height="1600.000000pt" viewBox="0 0 1563.000000 1600.000000"
 preserveAspectRatio="xMidYMid meet">
<metadata>
Created by potrace 1.16, written by Peter Selinger 2001-2019
</metadata>
<g transform="translate(0.000000,1600.000000) scale(0.100000,-0.100000)"
fill="#000000" stroke="none">
<path d="M8541 13225 c-35 -19 -140 -126 -156 -159 -8 -16 -15 -39 -15 -52 0
-13 -4 -26 -10 -29 -5 -3 -10 -19 -10 -35 0 -19 -9 -35 -25 -48 -15 -12 -25
-30 -25 -45 0 -14 -4 -29 -10 -32 -5 -3 -10 -19 -10 -35 0 -16 -4 -32 -10 -35
-5 -3 -10 -28 -10 -54 0 -31 -5 -53 -15 -61 -8 -7 -15 -21 -15 -31 0 -11 -4
-19 -10 -19 -6 0 -10 -36 -10 -89 0 -50 -4 -93 -10 -96 -5 -3 -10 -23 -10 -44
0 -29 -6 -43 -25 -57 -14 -10 -25 -26 -25 -35 0 -9 -9 -24 -20 -34 -20 -18
-50 -70 -50 -87 0 -5 -18 -27 -40 -49 -28 -28 -48 -39 -70 -39 -16 0 -30 5
-30 10 0 6 -8 10 -18 10 -10 0 -44 27 -77 60 -33 33 -64 60 -70 60 -6 0 -54
44 -108 98 l-97 97 0 72 c0 40 -4 75 -10 78 -5 3 -10 35 -10 70 0 47 -4 64
-15 69 -9 3 -15 18 -15 35 0 16 -4 33 -10 36 -5 3 -10 15 -10 26 0 10 -4 19
-10 19 -5 0 -10 20 -10 44 0 30 -5 46 -15 50 -8 3 -15 15 -15 26 0 11 -4 20
-10 20 -5 0 -10 9 -10 19 0 11 -4 23 -10 26 -5 3 -10 19 -10 34 0 16 -7 34
-15 41 -8 7 -15 23 -15 36 0 12 -4 26 -10 29 -5 3 -10 13 -10 21 0 29 -27 44
-79 44 -44 0 -55 -5 -91 -37 -22 -20 -40 -45 -40 -54 0 -10 -4 -21 -10 -24 -5
-3 -10 -19 -10 -36 0 -16 -4 -29 -10 -29 -5 0 -10 -17 -10 -39 0 -22 -6 -44
-15 -51 -11 -9 -15 -35 -15 -101 0 -53 -4 -89 -10 -89 -5 0 -10 -13 -10 -29 0
-17 -4 -33 -10 -36 -6 -4 -10 -53 -10 -114 0 -84 -3 -111 -15 -121 -11 -10
-15 -36 -15 -111 0 -59 -4 -99 -10 -99 -5 0 -10 -8 -10 -18 0 -11 -9 -27 -20
-37 -22 -20 -50 -71 -50 -92 0 -7 -4 -13 -10 -13 -5 0 -10 -8 -10 -18 0 -9
-39 -57 -88 -105 l-87 -87 -88 0 c-51 0 -87 4 -87 10 0 6 -13 10 -29 10 -16 0
-34 7 -41 15 -8 9 -30 15 -59 15 -57 1 -81 18 -81 59 0 17 -4 31 -10 31 -5 0
-10 13 -10 29 0 17 -4 32 -9 36 -13 7 -41 64 -41 82 0 7 -4 13 -10 13 -5 0
-10 8 -10 19 0 10 -7 24 -15 31 -8 7 -13 16 -10 20 2 4 -7 18 -20 30 -14 13
-25 32 -25 42 0 10 -4 18 -10 18 -5 0 -10 8 -10 18 0 10 -11 29 -25 42 -14 13
-25 29 -25 35 0 6 -16 26 -35 45 -19 19 -35 40 -35 48 0 17 -25 42 -42 42 -8
0 -29 16 -48 35 -19 19 -39 35 -46 35 -6 0 -17 7 -24 15 -8 10 -31 15 -70 15
-54 0 -60 -3 -99 -40 l-41 -40 0 -100 c0 -60 4 -100 10 -100 6 0 10 -6 10 -13
0 -18 28 -75 41 -82 5 -4 9 -19 9 -35 0 -16 5 -32 10 -35 6 -3 10 -24 10 -45
0 -21 5 -42 10 -45 6 -3 10 -17 10 -29 0 -13 7 -29 15 -36 13 -10 15 -49 15
-236 0 -134 -4 -225 -10 -229 -5 -3 -17 -21 -26 -40 -9 -19 -20 -35 -25 -35
-5 0 -9 -9 -9 -19 0 -11 -11 -28 -25 -39 -14 -11 -25 -26 -25 -34 0 -8 -9 -23
-20 -33 -11 -10 -20 -23 -20 -29 0 -7 -22 -34 -50 -61 -27 -27 -50 -57 -50
-67 0 -10 -4 -18 -10 -18 -5 0 -10 -13 -10 -29 0 -17 -4 -33 -10 -36 -5 -3
-10 -19 -10 -34 0 -16 -7 -34 -15 -41 -11 -9 -15 -34 -15 -96 0 -45 -4 -86
-10 -89 -5 -3 -10 -24 -10 -45 0 -21 -4 -42 -10 -45 -5 -3 -10 -19 -10 -34 0
-16 -7 -34 -15 -41 -8 -7 -15 -23 -15 -35 0 -24 -45 -75 -66 -75 -25 0 -74 56
-74 83 0 14 -4 29 -10 32 -5 3 -10 15 -10 26 0 10 -4 19 -10 19 -5 0 -10 9
-10 19 0 11 -4 22 -9 26 -11 6 -41 64 -41 78 0 5 -16 23 -35 40 -19 16 -35 38
-35 48 0 11 -4 19 -10 19 -5 0 -10 8 -10 18 0 23 -80 102 -103 102 -9 0 -17 5
-17 10 0 6 -9 10 -19 10 -11 0 -23 5 -26 10 -3 6 -23 10 -44 10 -33 0 -46 -8
-90 -51 -48 -47 -51 -53 -51 -99 0 -27 4 -52 10 -55 6 -3 10 -17 10 -29 0 -13
7 -29 15 -36 8 -7 15 -25 15 -41 0 -15 5 -31 10 -34 6 -3 10 -19 10 -35 0 -16
5 -32 10 -35 6 -3 10 -17 10 -29 0 -13 7 -29 15 -36 13 -11 15 -47 13 -239
l-3 -226 -51 -3 c-36 -2 -54 1 -64 13 -8 10 -29 15 -61 15 -26 0 -51 5 -54 10
-4 6 -62 10 -140 10 -78 0 -136 -4 -140 -10 -3 -5 -32 -10 -64 -10 -40 0 -63
-5 -71 -15 -7 -8 -21 -15 -31 -15 -11 0 -19 -4 -19 -10 0 -5 -6 -10 -13 -10
-18 0 -75 -28 -82 -41 -4 -5 -15 -9 -26 -9 -10 0 -19 -4 -19 -10 0 -5 -6 -10
-13 -10 -18 0 -75 -28 -82 -41 -4 -5 -13 -9 -20 -9 -19 0 -345 -326 -345 -345
0 -7 -4 -16 -9 -20 -13 -7 -41 -64 -41 -82 0 -7 -4 -13 -10 -13 -5 0 -10 -6
-10 -13 0 -18 -28 -75 -41 -82 -5 -4 -9 -15 -9 -26 0 -10 -4 -19 -10 -19 -5 0
-10 -9 -10 -19 0 -11 -4 -23 -10 -26 -5 -3 -10 -28 -10 -54 0 -31 -5 -53 -15
-61 -12 -10 -15 -42 -15 -165 0 -123 3 -155 15 -165 10 -8 15 -30 15 -61 0
-26 5 -51 10 -54 6 -3 10 -15 10 -26 0 -10 5 -19 10 -19 6 0 10 -17 10 -39 0
-22 6 -44 15 -51 8 -7 14 -22 13 -34 -1 -11 8 -38 20 -59 12 -21 22 -43 22
-49 0 -6 11 -21 25 -34 14 -13 25 -27 25 -32 0 -13 53 -117 62 -120 4 -2 8 -9
8 -16 0 -23 29 -71 60 -101 16 -16 30 -37 30 -47 0 -10 5 -18 10 -18 6 0 10
-8 10 -18 0 -10 11 -29 25 -42 14 -13 25 -28 25 -35 0 -6 27 -37 60 -70 33
-33 60 -65 60 -72 0 -7 32 -44 70 -82 39 -39 70 -77 70 -86 0 -8 5 -15 10 -15
6 0 10 -8 10 -18 0 -9 36 -53 80 -97 l80 -80 0 -107 c0 -60 -4 -110 -10 -113
-6 -4 -10 -65 -10 -150 0 -79 -4 -146 -9 -150 -6 -3 -17 -19 -25 -37 -13 -24
-16 -66 -16 -195 0 -102 -4 -163 -10 -163 -6 0 -10 -65 -10 -175 0 -110 4
-175 10 -175 6 0 10 -60 10 -159 0 -96 4 -162 10 -166 6 -3 10 -17 10 -29 0
-13 7 -29 15 -36 10 -9 15 -32 15 -76 0 -34 5 -66 10 -69 6 -3 10 -28 10 -55
0 -27 5 -52 10 -55 6 -3 10 -15 10 -26 0 -11 7 -22 15 -25 8 -4 15 -19 15 -34
0 -16 5 -32 10 -35 6 -3 10 -15 10 -26 0 -10 5 -19 10 -19 6 0 10 -8 10 -19 0
-10 7 -24 15 -31 8 -7 15 -18 15 -25 0 -7 7 -18 15 -25 13 -10 19 -10 35 5 19
17 20 32 20 297 0 153 4 278 8 278 21 0 32 -29 32 -86 0 -42 5 -65 15 -74 11
-9 15 -33 15 -86 0 -43 4 -74 10 -74 6 0 10 -36 10 -89 0 -50 5 -93 10 -96 6
-3 10 -17 10 -31 0 -14 7 -33 16 -42 12 -12 15 -29 12 -69 -3 -37 -1 -57 9
-64 8 -7 13 -33 13 -65 0 -30 5 -54 10 -54 6 0 10 -13 10 -28 0 -15 5 -33 12
-40 7 -7 11 -27 10 -46 -2 -20 4 -38 13 -46 9 -7 15 -29 15 -51 0 -21 5 -41
10 -44 5 -3 10 -15 10 -26 0 -10 5 -19 10 -19 6 0 10 -13 10 -29 0 -17 4 -32
9 -36 13 -7 41 -64 41 -82 0 -7 5 -13 10 -13 6 0 10 -8 10 -19 0 -10 7 -24 15
-31 8 -7 15 -25 15 -41 0 -16 5 -29 10 -29 6 0 10 -8 10 -18 0 -23 50 -72 73
-72 15 0 17 13 17 99 0 75 4 101 15 111 8 7 15 26 15 42 0 28 1 29 43 26 35
-2 43 -7 45 -25 2 -13 8 -23 13 -23 5 0 9 -8 9 -19 0 -10 7 -24 15 -31 8 -7
15 -18 15 -24 0 -7 20 -32 45 -56 25 -24 45 -52 45 -62 0 -10 5 -18 10 -18 6
0 10 -6 10 -13 0 -29 32 -74 95 -137 36 -35 65 -70 65 -76 0 -6 7 -17 15 -24
8 -7 15 -19 15 -27 0 -17 442 -463 459 -463 20 0 55 -24 107 -73 38 -36 58
-48 75 -45 22 3 24 9 27 61 2 35 -1 57 -8 57 -6 0 -10 28 -10 72 0 53 -4 76
-17 90 -14 16 -15 22 -5 36 7 9 15 25 18 35 4 9 9 17 12 17 14 0 62 -55 62
-72 0 -10 5 -18 10 -18 6 0 10 -8 10 -18 0 -10 14 -31 30 -47 32 -31 60 -78
60 -102 0 -7 5 -13 10 -13 6 0 10 -8 10 -18 0 -10 20 -38 45 -62 42 -42 75
-90 75 -112 0 -15 200 -208 216 -208 8 0 14 -7 14 -15 0 -19 52 -72 76 -77 10
-2 20 -12 22 -22 5 -24 26 -46 44 -46 8 0 29 -16 48 -35 19 -19 39 -35 45 -35
6 0 26 -16 45 -35 19 -19 42 -35 52 -35 10 0 18 -4 18 -10 0 -5 9 -10 19 -10
11 0 22 -4 26 -9 7 -13 64 -41 82 -41 7 0 13 -4 13 -10 0 -5 9 -10 19 -10 11
0 22 -4 26 -9 7 -13 64 -41 82 -41 7 0 13 -4 13 -10 0 -5 6 -10 13 -10 18 0
75 -28 82 -41 4 -5 24 -9 45 -9 21 0 42 -4 45 -10 3 -5 19 -10 35 -10 16 0 32
-4 35 -10 3 -5 28 -10 54 -10 31 0 53 -5 61 -15 10 -12 37 -15 121 -15 61 0
110 -4 114 -10 8 -13 222 -13 230 0 4 6 60 10 134 10 102 0 131 3 141 15 7 9
29 15 51 15 21 0 41 5 44 10 3 6 19 10 35 10 16 0 32 5 35 10 3 6 19 10 35 10
15 0 30 4 32 8 4 11 108 62 125 62 7 0 13 5 13 10 0 6 9 10 19 10 11 0 22 4
26 9 7 13 64 41 82 41 7 0 13 5 13 10 0 6 9 10 19 10 11 0 22 4 26 9 6 10 63
41 76 41 4 0 28 20 52 45 25 25 52 45 60 45 9 0 24 11 35 25 11 14 26 25 34
25 15 0 208 190 208 205 0 6 43 53 95 105 52 52 95 102 95 110 0 9 9 22 20 30
11 8 20 22 20 30 0 9 11 27 25 40 14 13 25 35 25 48 0 15 13 37 35 58 19 18
35 37 35 42 0 14 30 71 41 77 5 4 9 15 9 26 0 10 5 19 10 19 6 0 10 8 10 18 0
25 35 56 55 49 12 -5 15 -29 15 -142 0 -88 -4 -135 -10 -135 -7 0 -10 -22 -8
-57 3 -58 3 -58 36 -61 35 -4 72 19 72 45 0 17 36 53 53 53 8 0 22 9 32 20 10
11 23 20 29 20 14 0 376 362 376 376 0 6 11 21 25 34 14 13 25 30 25 37 0 7
41 53 90 102 50 49 90 96 90 104 0 8 9 22 20 32 20 18 50 70 50 87 0 5 16 24
35 42 19 19 35 40 36 47 0 8 9 28 20 44 10 17 23 40 29 53 18 41 90 17 90 -31
0 -9 5 -19 10 -22 6 -4 10 -53 10 -116 l0 -109 35 0 c28 0 35 4 35 20 0 11 4
20 10 20 5 0 12 11 16 25 3 14 10 25 15 25 5 0 9 9 9 19 0 11 5 23 10 26 6 3
10 17 10 31 0 14 6 32 14 40 8 7 12 22 9 32 -2 10 3 24 11 31 9 8 16 22 16 32
0 11 5 19 10 19 6 0 10 22 10 48 0 46 20 105 41 117 5 4 9 15 9 26 0 10 5 19
10 19 6 0 10 22 10 48 0 46 20 105 41 117 5 4 9 28 9 55 0 27 5 52 10 55 6 3
10 39 10 80 0 41 5 77 10 80 6 3 10 19 10 34 0 16 7 34 15 41 11 9 15 33 15
86 0 40 5 76 10 79 6 3 10 43 10 89 0 45 4 86 9 92 6 5 11 32 13 59 3 43 6 50
26 53 l22 3 0 -274 c0 -253 1 -275 18 -291 18 -15 20 -15 35 2 10 10 17 26 17
35 0 9 5 17 10 17 6 0 10 9 10 19 0 11 4 22 9 26 21 12 41 71 41 117 0 26 5
48 10 48 6 0 10 8 10 19 0 10 7 24 15 31 9 7 13 21 10 30 -3 10 1 25 10 33 11
11 15 37 15 91 0 44 4 76 10 76 6 0 10 9 10 19 0 11 5 23 10 26 6 4 10 68 10
159 0 124 3 156 15 166 12 10 15 44 15 185 0 141 -3 175 -15 185 -12 10 -15
47 -15 216 0 129 -4 204 -10 204 -5 0 -10 16 -10 35 0 19 -4 35 -10 35 -6 0
-10 40 -10 99 0 75 -4 101 -15 111 -11 9 -15 34 -15 100 l0 88 85 84 c47 47
85 92 85 102 0 9 5 16 10 16 6 0 10 8 10 18 0 9 43 60 95 112 52 52 95 100 95
106 0 7 16 28 35 47 19 19 35 42 35 51 0 9 5 16 10 16 6 0 10 8 10 18 0 11 9
27 20 37 12 11 28 34 37 52 8 18 19 33 24 33 5 0 9 9 9 19 0 11 11 28 25 39
14 11 25 26 25 34 0 8 9 23 20 33 11 10 20 24 20 30 0 7 7 18 15 25 8 7 15 21
15 31 0 11 5 19 10 19 6 0 10 6 10 13 0 18 28 75 41 82 5 4 9 15 9 26 0 10 5
19 10 19 6 0 10 20 10 45 0 25 5 45 10 45 6 0 10 13 10 29 0 16 7 34 15 41 9
7 15 29 15 51 0 21 5 41 10 44 6 3 10 19 10 35 0 16 5 32 10 35 6 4 10 65 10
150 0 85 -4 146 -10 150 -5 3 -10 24 -10 45 0 21 -4 42 -10 45 -5 3 -10 23
-10 44 0 22 -6 44 -15 51 -8 7 -15 21 -15 31 0 11 -4 19 -10 19 -5 0 -10 8
-11 18 0 9 -9 31 -19 47 -11 17 -27 45 -36 63 -9 17 -20 32 -25 32 -5 0 -9 8
-9 19 0 10 -7 24 -15 31 -8 7 -15 18 -15 24 0 18 -284 296 -303 296 -9 0 -17
5 -17 10 0 6 -8 10 -17 10 -10 0 -37 20 -60 44 -47 50 -93 76 -133 76 -28 0
-85 24 -95 41 -4 5 -35 9 -70 9 -35 0 -67 5 -70 10 -4 6 -60 10 -135 10 -75 0
-131 -4 -135 -10 -3 -5 -23 -10 -44 -10 -22 0 -44 -6 -51 -15 -7 -9 -29 -15
-51 -15 -21 0 -41 -4 -44 -10 -3 -5 -31 -10 -61 -10 -30 0 -54 -4 -54 -10 0
-5 -13 -10 -28 -10 -15 0 -33 -5 -40 -12 -9 -9 -15 -9 -24 0 -7 7 -20 12 -30
12 -15 0 -18 9 -18 58 0 55 -19 114 -41 127 -5 4 -9 51 -9 105 0 55 -4 102
-10 105 -5 3 -10 28 -10 55 0 27 -4 52 -10 55 -5 3 -10 19 -10 34 0 16 -7 34
-15 41 -8 7 -15 23 -15 36 0 12 -4 26 -10 29 -5 3 -10 19 -10 35 0 16 -4 32
-10 35 -5 3 -10 19 -10 35 0 16 -5 32 -10 35 -6 3 -19 25 -30 49 -10 23 -26
48 -34 55 -8 6 -17 23 -20 36 -4 14 -11 25 -16 25 -6 0 -10 8 -10 18 0 11 -9
27 -20 37 -11 10 -20 24 -20 30 0 7 -7 18 -15 25 -8 7 -15 19 -15 27 0 8 -20
34 -45 59 -25 24 -45 49 -45 57 0 18 -32 47 -53 47 -9 0 -17 5 -17 10 0 6 -8
10 -18 10 -23 0 -122 100 -122 123 0 9 -4 17 -10 17 -5 0 -10 9 -10 19 0 11
-4 22 -9 26 -13 7 -41 64 -41 82 0 7 -4 13 -10 13 -5 0 -10 13 -10 29 0 16 -7
34 -16 42 -8 7 -13 21 -11 30 3 10 -1 26 -9 36 -7 10 -14 30 -14 46 0 15 -4
27 -10 27 -5 0 -10 13 -10 28 0 15 -4 32 -10 38 -13 13 -15 363 -1 377 6 6 11
47 11 92 l0 81 -40 37 c-39 36 -43 37 -113 37 -71 0 -74 -1 -110 -38 -20 -21
-37 -43 -37 -49 0 -6 -7 -16 -15 -23 -8 -7 -15 -21 -15 -31 0 -11 -4 -19 -10
-19 -5 0 -10 -6 -10 -13 0 -18 -28 -75 -41 -82 -5 -4 -9 -15 -9 -26 0 -10 -4
-19 -10 -19 -5 0 -10 -13 -10 -29 0 -17 -4 -33 -10 -36 -5 -3 -10 -13 -10 -21
0 -9 -7 -22 -15 -30 -8 -9 -15 -26 -15 -39 0 -13 -4 -27 -10 -30 -5 -3 -10
-18 -10 -32 0 -29 -80 -115 -118 -127 -12 -4 -22 -12 -22 -17 0 -5 -9 -9 -19
-9 -11 0 -23 -4 -26 -10 -3 -5 -34 -10 -69 -10 -59 0 -64 2 -101 41 -22 22
-50 45 -62 50 -13 5 -23 14 -23 21 0 8 -47 60 -105 118 -58 58 -105 113 -105
122 0 10 -4 18 -10 18 -5 0 -10 20 -10 45 0 25 -4 45 -10 45 -5 0 -10 13 -10
29 0 16 -7 34 -15 41 -8 7 -15 25 -15 41 0 15 -4 31 -10 34 -5 3 -10 24 -10
45 0 21 -4 42 -10 45 -15 9 -13 112 3 118 9 3 8 8 -3 22 -11 14 -12 19 -2 22
14 5 17 43 2 43 -6 0 -10 27 -10 60 0 33 4 60 10 60 6 0 10 16 10 35 0 19 5
35 10 35 6 0 10 28 10 65 0 64 0 64 -50 115 -44 43 -56 50 -88 49 -20 -1 -48
-7 -61 -14z m37 -259 c2 -21 -1 -43 -7 -49 -6 -6 -11 -43 -11 -83 0 -51 -4
-75 -15 -84 -10 -8 -15 -31 -15 -72 0 -43 4 -60 15 -64 12 -5 15 -28 15 -120
0 -69 4 -114 10 -114 6 0 10 -24 10 -54 0 -30 5 -58 10 -61 14 -9 12 -77 -4
-97 -17 -23 -26 -23 -26 1 0 10 -7 24 -15 31 -8 7 -15 25 -15 41 0 16 -4 29
-10 29 -5 0 -10 8 -10 18 0 27 -34 54 -62 50 -18 -2 -24 -10 -26 -35 -3 -27
-7 -33 -28 -33 -23 0 -24 2 -24 73 0 41 5 78 11 84 7 7 11 45 10 101 -2 69 2
93 14 105 8 9 15 27 15 41 0 14 5 28 10 31 6 3 10 24 10 45 0 21 5 42 10 45 6
3 10 19 10 35 0 16 4 31 9 35 13 7 41 64 41 82 0 7 5 13 10 13 6 0 10 8 10 18
0 51 44 40 48 -12z m-1298 -44 c0 -10 6 -24 12 -30 7 -7 11 -27 10 -45 -2 -21
3 -38 12 -46 11 -9 16 -30 16 -62 0 -26 5 -51 10 -54 6 -3 10 -24 10 -45 0
-21 5 -42 10 -45 6 -3 10 -35 10 -71 0 -48 4 -66 15 -70 12 -5 15 -25 15 -95
0 -49 -4 -89 -8 -89 -16 0 -62 68 -62 91 0 6 -7 18 -16 26 -22 22 -48 5 -52
-33 -2 -16 -9 -35 -15 -43 -6 -7 -10 -28 -8 -46 1 -18 -3 -36 -9 -40 -6 -4
-15 -18 -21 -32 -5 -13 -15 -23 -22 -21 -15 6 -22 147 -7 162 5 5 10 53 10
107 0 55 4 101 10 104 6 4 10 53 10 114 0 86 3 111 16 122 11 9 15 29 14 73
-2 86 -2 86 20 86 13 0 20 -7 20 -18z m-1370 -571 c17 -15 30 -36 30 -45 0 -9
4 -16 9 -16 5 0 16 -15 24 -32 9 -18 29 -46 46 -62 17 -17 31 -37 31 -47 0 -9
7 -19 15 -23 8 -3 15 -15 15 -26 0 -11 5 -20 10 -20 6 0 10 -16 10 -35 0 -19
5 -35 10 -35 6 0 10 -13 10 -29 0 -16 7 -34 16 -42 10 -8 14 -26 13 -56 -2
-24 2 -48 9 -55 7 -7 12 -28 12 -48 0 -20 6 -42 13 -49 10 -11 10 -14 0 -18
-7 -3 -13 -12 -13 -21 0 -22 -30 -52 -52 -52 -13 0 -18 -7 -18 -28 0 -16 -9
-37 -20 -47 -17 -16 -21 -16 -35 -2 -8 9 -15 20 -15 25 0 14 -30 71 -41 77 -5
4 -9 13 -9 21 0 8 -9 24 -20 36 -18 20 -20 36 -20 199 0 148 -2 178 -15 183
-8 3 -15 14 -15 25 0 11 -4 23 -10 26 -5 3 -10 28 -10 55 0 27 -4 52 -10 55
-10 6 -15 115 -5 115 3 0 19 -13 35 -29z m3878 -49 c2 -40 -1 -54 -12 -58 -12
-5 -16 -21 -16 -69 0 -35 -4 -67 -10 -70 -6 -3 -10 -50 -10 -106 0 -88 -2 -99
-18 -99 -20 0 -52 -33 -52 -55 0 -7 -4 -17 -10 -20 -5 -3 -10 -23 -10 -44 0
-20 -5 -42 -11 -48 -6 -6 -16 -21 -23 -34 -6 -12 -17 -24 -23 -27 -16 -5 -19
263 -3 273 6 3 10 24 10 45 0 21 5 42 10 45 6 3 10 17 10 29 0 13 7 29 15 36
8 7 15 25 15 41 0 15 5 31 10 34 6 3 10 15 10 26 0 10 5 19 10 19 6 0 10 9 10
19 0 11 4 22 9 26 13 7 41 64 41 82 0 9 8 13 23 11 19 -3 22 -10 25 -56z
m-1233 -532 c3 -5 19 -10 34 -10 16 0 34 -7 41 -15 7 -8 18 -15 24 -15 7 0 27
-16 46 -35 19 -19 39 -35 45 -35 15 0 218 -205 227 -229 4 -11 11 -22 17 -26
6 -3 11 -15 11 -26 0 -10 5 -19 10 -19 6 0 10 -6 10 -13 0 -14 18 -50 50 -102
10 -16 19 -42 19 -57 1 -15 6 -30 11 -33 6 -4 10 -68 10 -159 0 -173 -11 -216
-56 -216 -32 0 -54 -22 -54 -53 0 -14 -7 -30 -15 -37 -8 -7 -15 -21 -15 -32 0
-13 -6 -18 -17 -16 -13 2 -19 15 -21 43 -2 23 -13 51 -25 65 -29 33 -47 66
-47 85 0 8 -4 15 -10 15 -5 0 -10 13 -10 28 0 16 -9 37 -20 47 -20 18 -21 18
-50 -10 -27 -26 -30 -35 -30 -92 0 -35 -4 -63 -10 -63 -5 0 -10 -16 -10 -35 0
-19 -4 -35 -10 -35 -5 0 -10 -13 -10 -29 0 -16 -7 -34 -15 -41 -8 -7 -15 -18
-15 -25 0 -19 -38 -48 -55 -42 -19 8 -19 31 0 47 8 7 15 22 15 34 0 12 6 28
13 35 10 11 10 14 0 18 -7 3 -13 13 -13 23 0 10 -11 27 -25 38 -14 11 -25 27
-25 35 0 9 -4 19 -10 22 -5 3 -10 35 -10 69 0 56 -3 65 -25 82 -14 10 -25 26
-25 36 0 9 -4 20 -10 23 -5 3 -10 22 -10 42 0 38 -23 73 -48 73 -29 0 -53 -41
-50 -89 1 -28 -3 -46 -10 -49 -7 -2 -12 -12 -12 -22 0 -10 -4 -22 -10 -25 -5
-3 -10 -23 -10 -44 0 -22 -6 -44 -15 -51 -9 -8 -12 -22 -8 -41 6 -32 -18 -69
-45 -69 -19 0 -52 29 -52 45 0 7 -9 20 -20 30 -13 12 -20 31 -20 55 0 21 -7
43 -15 50 -8 7 -15 19 -15 27 0 18 -24 43 -41 43 -22 0 -49 -32 -49 -57 0 -25
-21 -53 -39 -53 -18 0 -14 145 4 160 10 8 15 31 15 66 0 30 4 62 9 72 5 9 17
33 26 52 9 19 24 49 35 65 10 17 19 38 19 48 1 9 6 17 11 17 6 0 10 51 10 133
l0 133 64 63 c35 34 74 69 87 76 29 16 235 20 244 5z m-1160 -70 c3 -5 14 -10
25 -10 10 0 20 -7 24 -15 3 -8 13 -15 23 -15 23 0 303 -279 303 -302 0 -10 5
-18 10 -18 6 0 10 -8 10 -19 0 -10 7 -24 15 -31 9 -7 13 -21 10 -30 -3 -10 1
-25 10 -33 8 -9 15 -27 15 -41 0 -14 5 -28 10 -31 17 -10 13 -244 -4 -261 -19
-19 -76 -19 -76 1 0 8 -16 29 -35 48 -21 21 -35 44 -35 59 0 14 -13 36 -30 53
l-30 29 -30 -29 c-19 -18 -30 -39 -30 -56 0 -15 -4 -31 -10 -34 -5 -3 -10 -21
-10 -39 0 -33 -23 -91 -41 -101 -5 -4 -9 -24 -9 -46 0 -39 -1 -40 -32 -37 -31
3 -33 6 -36 46 -2 23 -7 42 -13 42 -5 0 -9 6 -9 13 0 18 -28 75 -41 82 -5 4
-9 18 -9 33 0 15 -12 38 -27 54 -25 26 -28 27 -45 11 -12 -11 -18 -30 -18 -60
0 -23 -4 -43 -10 -43 -5 0 -10 -13 -10 -29 0 -16 -7 -34 -15 -41 -9 -7 -13
-21 -10 -30 3 -10 -1 -24 -9 -32 -8 -8 -16 -28 -18 -44 -2 -22 -9 -30 -26 -32
-35 -5 -62 25 -62 69 0 21 -4 41 -10 44 -5 3 -10 19 -10 34 0 16 -7 34 -15 41
-8 7 -15 25 -15 41 0 16 -4 29 -10 29 -5 0 -10 12 -10 27 0 29 -25 63 -47 63
-26 0 -43 -28 -43 -70 0 -27 -5 -43 -15 -46 -9 -4 -15 -19 -15 -35 0 -31 -9
-36 -28 -17 -15 15 -17 238 -2 238 6 0 10 24 10 53 0 44 -4 58 -25 77 -15 14
-25 35 -25 52 0 15 -4 28 -10 28 -6 0 -10 30 -10 70 0 40 -4 70 -10 70 -5 0
-10 20 -10 45 l0 45 45 0 c38 0 45 -3 45 -19 0 -11 5 -23 10 -26 6 -3 10 -19
10 -35 0 -15 7 -30 15 -34 8 -3 15 -15 15 -26 0 -11 3 -20 6 -20 14 0 34 31
34 53 0 14 7 30 15 37 8 7 15 21 15 31 0 11 5 19 10 19 6 0 10 8 10 17 0 10
28 46 62 80 l62 63 108 0 c60 0 110 -4 113 -10z m2320 -350 c3 -5 15 -10 26
-10 10 0 19 -4 19 -10 0 -5 9 -10 19 -10 11 0 22 -4 26 -9 6 -11 63 -41 77
-41 14 0 248 -239 248 -254 0 -7 11 -23 25 -36 14 -13 25 -35 25 -49 0 -16 10
-33 25 -45 16 -12 25 -29 25 -47 0 -15 5 -31 10 -34 6 -3 10 -15 10 -26 0 -10
5 -19 10 -19 6 0 10 -83 10 -229 0 -143 -4 -232 -10 -236 -5 -3 -10 -16 -10
-29 0 -27 -24 -79 -45 -96 -7 -6 -26 -10 -42 -8 -27 3 -28 6 -31 63 -2 33 -7
64 -13 70 -5 5 -9 15 -9 22 0 8 -11 26 -25 41 -14 15 -25 32 -25 39 0 19 -50
16 -72 -4 -10 -9 -18 -24 -18 -35 0 -10 -4 -18 -10 -18 -5 0 -10 -13 -10 -29
0 -16 -6 -34 -13 -40 -8 -6 -12 -23 -9 -41 6 -39 -21 -70 -60 -70 -43 0 -58
21 -58 79 0 27 -4 53 -10 56 -5 3 -10 20 -10 36 0 17 -6 32 -15 35 -8 4 -15
14 -15 24 0 11 -4 22 -10 25 -5 3 -10 28 -10 55 0 27 -4 52 -10 55 -5 3 -10
13 -10 20 0 8 -14 28 -31 46 l-31 31 -29 -28 c-22 -21 -29 -37 -29 -67 0 -22
-7 -45 -16 -54 -14 -14 -19 -12 -55 23 -52 51 -69 86 -69 146 0 26 -4 48 -10
48 -5 0 -10 12 -10 28 0 15 -7 35 -14 45 -8 10 -12 26 -9 36 2 9 -3 23 -11 30
-23 19 -24 332 -1 351 8 7 15 18 15 24 0 14 109 123 141 141 28 16 145 19 154
5z m-3270 -140 c3 -5 14 -10 23 -10 20 0 122 -102 122 -122 0 -8 9 -20 20 -28
11 -8 20 -22 20 -31 0 -9 7 -22 15 -29 11 -9 15 -34 15 -95 0 -69 3 -85 20
-100 11 -10 20 -24 20 -32 0 -8 7 -21 15 -30 9 -8 13 -23 10 -33 -3 -9 1 -23
10 -30 13 -10 15 -48 15 -235 0 -187 -2 -225 -15 -235 -9 -7 -13 -21 -10 -30
3 -10 -1 -25 -10 -33 -8 -9 -15 -22 -15 -30 0 -44 -82 -63 -88 -19 -2 12 -8
22 -13 22 -5 0 -9 25 -9 55 0 40 -4 57 -15 61 -8 4 -15 14 -15 24 0 9 -9 25
-20 35 -11 10 -20 24 -20 30 0 7 -7 18 -15 25 -9 7 -15 29 -15 51 0 38 -1 39
-35 39 l-35 0 0 -50 c0 -31 -7 -63 -20 -85 -11 -20 -20 -51 -20 -69 0 -18 -7
-39 -15 -46 -8 -7 -15 -29 -15 -50 0 -43 -23 -71 -42 -52 -7 7 -20 12 -30 12
-10 0 -18 7 -18 15 0 17 -17 50 -39 78 -32 39 -101 9 -101 -45 0 -37 -24 -37
-62 -1 -21 20 -28 36 -28 64 0 21 -4 41 -10 44 -5 3 -10 19 -10 34 0 16 -7 34
-15 41 -8 7 -15 25 -15 41 0 16 -4 29 -10 29 -5 0 -10 13 -10 29 0 17 -4 33
-10 36 -5 3 -10 19 -10 34 0 16 -7 34 -15 41 -8 7 -15 19 -15 26 0 24 -33 15
-67 -18 -32 -31 -33 -31 -53 -13 -23 21 -27 63 -5 71 11 5 15 22 15 69 0 35 5
67 10 70 6 3 10 15 10 26 0 10 5 19 10 19 6 0 10 8 10 19 0 10 7 24 15 31 8 7
15 18 15 24 0 7 16 27 35 46 19 19 35 40 35 47 0 17 167 183 184 183 7 0 21 9
31 20 20 22 71 50 92 50 7 0 13 5 13 10 0 6 36 10 89 10 50 0 93 -4 96 -10z
m-1455 -316 c0 -6 9 -19 20 -29 11 -10 20 -26 20 -36 0 -9 4 -19 8 -21 10 -4
62 -108 62 -124 0 -7 5 -14 12 -16 7 -3 11 -19 10 -40 -2 -22 4 -42 13 -51 8
-9 15 -22 15 -31 0 -8 5 -18 10 -21 6 -3 10 -19 10 -36 0 -16 5 -29 10 -29 6
0 10 -31 10 -74 0 -53 4 -77 15 -86 16 -13 22 -140 7 -140 -4 0 -24 16 -42 35
-44 45 -83 46 -88 2 -4 -31 -31 -69 -44 -61 -4 3 -8 81 -8 175 0 106 -4 169
-10 169 -5 0 -10 9 -10 19 0 11 -4 23 -10 26 -5 3 -10 44 -10 89 0 62 -4 87
-15 96 -8 7 -15 23 -15 36 0 13 -9 39 -20 59 -11 20 -20 46 -20 60 0 13 -4 26
-9 30 -6 3 -16 18 -24 34 -13 26 -13 31 1 45 15 15 20 12 59 -26 24 -23 43
-47 43 -54z m4564 -481 c3 -10 11 -26 18 -35 10 -14 9 -21 -6 -37 -11 -12 -27
-21 -38 -21 -15 0 -18 8 -18 43 0 56 30 90 44 50z m-1394 -33 c0 -5 13 -10 29
-10 16 0 34 -7 41 -15 7 -8 25 -15 41 -15 15 0 31 -4 34 -10 3 -5 19 -10 36
-10 16 0 29 -4 29 -10 0 -5 9 -10 19 -10 11 0 22 -4 26 -9 7 -13 64 -41 82
-41 7 0 13 -4 13 -10 0 -5 8 -10 19 -10 10 0 24 -7 31 -15 7 -8 18 -15 25 -15
6 0 20 -9 30 -20 10 -11 23 -20 30 -20 6 0 34 -22 61 -50 27 -27 55 -50 61
-50 7 0 30 -16 50 -35 20 -19 42 -35 47 -35 16 0 386 -373 386 -388 0 -8 11
-23 25 -34 14 -11 25 -27 25 -36 0 -10 47 -64 105 -121 58 -57 105 -109 105
-115 0 -6 36 -47 80 -91 99 -98 101 -110 27 -183 -30 -28 -61 -52 -70 -52 -10
0 -17 -4 -17 -10 0 -5 -8 -10 -18 -10 -10 0 -31 -14 -48 -31 -16 -17 -45 -37
-64 -46 -19 -8 -42 -19 -50 -24 -8 -5 -25 -13 -37 -18 -11 -6 -24 -15 -28 -20
-3 -6 -27 -21 -53 -32 -26 -12 -54 -30 -63 -40 -9 -11 -23 -19 -31 -19 -8 0
-25 -11 -38 -25 -17 -18 -34 -25 -62 -25 -34 0 -38 3 -38 25 0 14 5 25 10 25
6 0 10 51 10 134 0 79 -4 137 -10 141 -5 3 -10 19 -10 34 0 16 -10 37 -25 51
-14 13 -25 28 -25 34 0 14 -81 96 -96 96 -6 0 -19 9 -29 20 -10 11 -24 20 -32
20 -8 0 -21 7 -29 15 -12 12 -44 15 -149 15 -105 0 -137 -3 -149 -15 -8 -8
-19 -15 -25 -15 -6 0 -26 -9 -46 -20 -36 -20 -65 -26 -65 -13 0 13 74 83 88
83 18 0 42 25 42 43 0 8 7 20 15 27 9 8 15 29 15 56 0 40 -5 48 -65 109 -36
36 -72 65 -79 65 -8 0 -18 5 -21 10 -4 6 -62 10 -140 10 -78 0 -136 -4 -140
-10 -3 -5 -19 -10 -36 -10 -16 0 -29 -4 -29 -10 0 -5 -9 -10 -19 -10 -11 0
-22 -4 -26 -9 -7 -13 -64 -41 -82 -41 -7 0 -13 -4 -13 -10 0 -5 -8 -10 -19
-10 -10 0 -24 -7 -31 -15 -28 -34 -90 -4 -90 44 0 13 -12 38 -27 53 -22 23
-35 28 -77 28 -48 0 -53 -2 -113 -62 -59 -59 -63 -65 -63 -108 0 -39 5 -50 33
-76 35 -32 71 -54 87 -54 18 0 96 -83 82 -88 -6 -2 -12 -11 -12 -19 0 -22 -81
-103 -102 -103 -10 0 -18 -4 -18 -10 0 -5 -8 -10 -18 -10 -10 0 -38 -20 -62
-45 -24 -25 -49 -45 -55 -45 -5 0 -29 -19 -53 -41 l-44 -41 28 -29 c20 -21 37
-29 63 -29 59 0 71 -20 71 -122 0 -67 -3 -88 -13 -88 -18 0 -75 -28 -82 -41
-4 -5 -15 -9 -26 -9 -10 0 -19 -4 -19 -10 0 -5 -7 -10 -15 -10 -31 0 -125 -71
-125 -95 0 -7 -9 -20 -20 -30 -11 -10 -20 -27 -20 -37 0 -10 -7 -21 -15 -24
-8 -4 -15 -14 -15 -24 0 -11 -4 -22 -10 -25 -6 -4 -10 -63 -9 -148 0 -122 3
-146 20 -172 10 -16 23 -40 28 -52 6 -12 24 -35 41 -51 16 -16 30 -37 30 -46
0 -9 7 -16 15 -16 9 0 26 -9 38 -21 12 -11 38 -28 57 -36 87 -40 91 -70 17
-106 -29 -15 -62 -35 -74 -47 -12 -11 -28 -20 -35 -21 -7 0 -26 -9 -43 -19
-16 -11 -45 -27 -62 -36 -18 -9 -33 -20 -33 -25 0 -14 -40 -10 -56 5 -8 8 -14
33 -14 55 0 23 -4 41 -10 41 -5 0 -10 8 -10 19 0 10 -7 24 -15 31 -10 8 -15
30 -15 61 0 26 -4 51 -10 54 -5 3 -10 13 -10 21 0 14 -54 74 -67 74 -4 0 -17
-10 -30 -22 -19 -17 -23 -32 -23 -78 0 -42 -5 -61 -20 -78 -11 -12 -20 -27
-20 -35 0 -7 -5 -18 -12 -25 -8 -8 -11 -41 -9 -100 2 -71 -1 -91 -13 -101 -11
-10 -16 -31 -16 -74 0 -57 -3 -64 -37 -99 -20 -21 -44 -38 -51 -38 -8 0 -25
-11 -38 -25 -13 -14 -29 -25 -36 -25 -8 0 -49 -36 -93 -80 -44 -44 -84 -80
-91 -80 -6 0 -21 -11 -34 -25 -13 -14 -30 -25 -37 -25 -18 0 -57 -39 -74 -75
-8 -17 -23 -31 -33 -33 -10 -2 -29 -15 -41 -28 -30 -32 -35 -30 -35 11 0 19 5
35 10 35 6 0 10 24 10 53 0 49 -3 56 -45 97 -45 44 -45 44 -45 115 0 63 -3 74
-25 95 -14 13 -25 32 -25 42 0 10 -4 18 -10 18 -5 0 -10 25 -10 55 l0 55 -45
0 -45 0 0 -49 c0 -31 -5 -53 -15 -61 -8 -7 -15 -21 -15 -31 0 -11 -4 -19 -10
-19 -5 0 -10 -20 -10 -45 0 -25 -4 -45 -10 -45 -5 0 -10 -20 -10 -45 0 -25 -4
-45 -10 -45 -5 0 -12 -11 -16 -25 -4 -16 -13 -25 -25 -25 -17 0 -19 -9 -19
-99 0 -77 -3 -101 -15 -111 -12 -10 -15 -29 -14 -74 2 -38 -2 -61 -9 -64 -7
-2 -12 -12 -12 -22 0 -10 -4 -22 -10 -25 -5 -3 -10 -19 -10 -36 0 -37 -30 -40
-65 -4 -20 19 -25 34 -25 75 0 36 -4 52 -15 56 -9 4 -15 19 -15 40 0 19 -4 34
-10 34 -5 0 -10 8 -10 18 0 20 -52 72 -72 72 -18 0 -48 -31 -48 -52 0 -10 -4
-18 -10 -18 -5 0 -10 -13 -10 -29 0 -17 -4 -33 -10 -36 -5 -3 -10 -15 -10 -26
0 -11 -7 -22 -15 -25 -11 -4 -15 -21 -15 -59 0 -36 -5 -57 -16 -66 -9 -7 -20
-22 -25 -34 -5 -11 -15 -28 -21 -38 -11 -15 -10 -20 5 -31 18 -14 23 -61 8
-71 -22 -13 -41 -72 -41 -127 0 -32 -4 -58 -10 -58 -5 0 -10 -20 -10 -44 0
-27 -5 -46 -12 -49 -20 -6 23 -79 55 -95 30 -14 36 -37 12 -46 -8 -3 -15 -15
-15 -26 0 -17 -6 -20 -51 -20 -40 0 -56 5 -70 22 -11 11 -19 26 -19 33 0 7 -9
20 -20 30 -11 10 -20 31 -20 47 0 15 -4 28 -10 28 -5 0 -10 9 -10 20 0 11 -7
23 -15 26 -9 4 -15 19 -15 40 0 19 -4 34 -10 34 -5 0 -10 6 -10 13 0 18 -28
75 -41 82 -5 4 -9 19 -9 36 0 16 -4 29 -10 29 -5 0 -10 13 -10 29 0 17 -4 33
-10 36 -5 3 -10 31 -10 61 0 39 -4 56 -15 60 -12 5 -15 26 -15 104 0 55 -4
102 -10 105 -5 3 -10 19 -10 35 0 16 -4 32 -10 35 -13 8 -13 115 0 115 6 0 10
20 10 45 0 25 -4 45 -10 45 -5 0 -10 15 -10 34 0 19 5 38 10 41 6 3 10 19 10
36 0 16 5 29 10 29 6 0 10 40 10 99 0 75 4 101 15 111 9 7 15 29 15 51 0 21 5
41 10 44 6 3 10 19 10 36 0 16 5 29 10 29 6 0 10 20 10 44 0 25 4 47 9 51 16
9 41 66 41 92 0 12 5 23 10 23 6 0 10 9 10 19 0 11 4 22 9 26 13 7 41 64 41
82 0 7 5 13 10 13 6 0 10 8 10 19 0 10 7 24 15 31 8 7 13 16 10 20 -3 4 2 13
10 20 8 7 15 21 15 31 0 11 5 19 10 19 6 0 10 8 10 18 0 11 9 27 20 37 20 18
50 70 50 87 0 5 20 28 45 52 25 25 45 50 45 57 0 18 241 259 258 259 7 0 61
47 119 105 58 58 108 105 112 105 20 0 71 33 71 46 0 8 8 17 18 21 22 8 122
104 122 118 0 7 11 22 25 35 14 13 25 30 25 37 0 7 56 69 125 137 69 67 125
129 125 137 0 8 36 50 80 94 44 44 80 84 80 90 0 6 16 26 35 45 19 19 35 39
35 46 0 16 378 394 394 394 7 0 27 16 46 35 19 19 39 35 45 35 6 0 33 23 60
50 27 28 56 50 65 50 9 0 22 9 30 20 8 11 22 20 32 20 9 0 19 4 23 9 7 13 64
41 82 41 7 0 13 5 13 10 0 6 9 10 19 10 11 0 22 4 26 9 9 16 66 41 91 41 13 0
26 5 29 10 3 6 17 10 31 10 14 0 32 7 40 15 9 8 26 15 39 15 13 0 27 5 30 10
4 6 100 10 256 10 159 0 249 -4 249 -10z m-3992 -537 c2 -8 -5 -13 -16 -13
-10 0 -27 -9 -37 -20 -10 -11 -23 -20 -29 -20 -7 0 -34 -22 -61 -50 -27 -27
-55 -50 -61 -50 -17 0 -134 -117 -134 -133 0 -7 -16 -28 -35 -47 -19 -19 -35
-39 -35 -46 0 -6 -7 -17 -15 -24 -8 -7 -15 -21 -15 -31 0 -11 -4 -19 -10 -19
-5 0 -10 -9 -10 -19 0 -11 -4 -23 -10 -26 -5 -3 -10 -35 -10 -70 0 -47 -4 -64
-15 -69 -8 -3 -15 -16 -15 -29 0 -14 7 -30 15 -37 11 -9 15 -33 15 -86 0 -40
5 -76 10 -79 6 -3 10 -24 10 -45 0 -21 5 -42 10 -45 6 -3 10 -19 10 -34 0 -16
7 -34 15 -41 8 -7 15 -25 15 -41 0 -16 5 -29 10 -29 6 0 10 -8 10 -18 0 -10
11 -29 25 -42 14 -13 25 -35 25 -50 0 -14 9 -32 20 -40 11 -8 20 -26 20 -40 0
-15 11 -37 25 -50 14 -13 25 -32 25 -42 0 -10 5 -18 10 -18 6 0 10 -9 10 -19
0 -11 11 -28 25 -39 14 -11 25 -26 25 -34 0 -8 11 -25 25 -38 15 -14 25 -35
25 -51 0 -15 6 -29 13 -32 6 -2 9 -8 4 -12 -9 -10 -67 43 -67 61 0 7 -16 28
-35 47 -19 19 -35 41 -35 49 0 8 -11 25 -25 38 -14 13 -25 29 -25 35 0 7 -9
20 -20 30 -11 10 -20 23 -20 30 0 6 -11 22 -25 35 -14 13 -25 32 -25 42 0 10
-4 18 -10 18 -5 0 -10 9 -10 19 0 11 -4 22 -9 26 -13 7 -41 64 -41 82 0 7 -4
13 -10 13 -5 0 -10 9 -10 19 0 11 -4 22 -9 26 -16 9 -41 66 -41 91 0 13 -4 26
-10 29 -5 3 -10 17 -10 31 0 14 -7 32 -15 40 -10 10 -15 35 -15 74 0 32 -4 62
-10 65 -5 3 -10 24 -10 45 0 21 5 42 10 45 6 3 10 32 10 64 0 40 5 63 15 71 8
7 15 21 15 31 0 11 5 19 10 19 6 0 10 6 10 14 0 21 24 63 59 101 17 19 31 40
31 46 0 16 152 169 168 169 7 0 26 13 43 30 31 29 122 80 145 80 6 0 17 7 24
15 15 18 51 16 58 -2z m1333 -50 c38 -36 69 -75 69 -85 0 -10 5 -18 10 -18 6
0 10 -24 10 -54 0 -30 5 -58 10 -61 6 -3 10 -17 10 -31 0 -14 7 -32 16 -41 8
-9 13 -22 9 -31 -3 -8 1 -23 10 -32 13 -14 15 -43 13 -171 -3 -146 -4 -154
-23 -154 -13 0 -21 8 -23 23 -2 12 -8 22 -13 22 -5 0 -9 6 -9 13 0 18 -28 75
-41 82 -5 4 -9 15 -9 26 0 11 -7 19 -17 19 -26 0 -53 -31 -53 -61 0 -15 -4
-31 -10 -34 -5 -3 -10 -23 -10 -44 0 -28 -7 -44 -29 -65 -27 -26 -31 -27 -45
-13 -9 9 -16 22 -16 30 0 8 -7 20 -15 27 -8 7 -15 22 -15 34 -1 35 -25 58 -57
54 -25 -3 -28 -7 -31 -43 -2 -22 -8 -44 -13 -49 -5 -6 -9 -20 -9 -33 0 -12
-13 -36 -30 -53 l-30 -31 -30 31 c-24 25 -30 39 -30 75 0 26 -8 59 -20 80 -11
20 -20 46 -20 59 0 12 -9 31 -20 41 -11 10 -27 32 -35 48 -17 34 -20 123 -5
132 6 3 10 15 10 26 0 10 5 19 10 19 6 0 10 9 10 19 0 11 4 22 9 26 11 6 41
63 41 76 0 16 124 130 160 146 19 9 48 27 63 40 21 17 41 23 79 23 48 0 53 -2
119 -67z m6323 52 c8 -8 19 -15 24 -15 17 0 69 -30 87 -50 10 -11 25 -20 32
-20 8 0 38 -24 67 -54 29 -30 62 -56 72 -58 10 -2 20 -12 22 -23 3 -10 28 -43
58 -72 30 -28 54 -59 54 -67 0 -8 4 -17 9 -21 13 -7 41 -64 41 -82 0 -7 5 -13
10 -13 6 0 10 -8 10 -19 0 -10 7 -24 15 -31 12 -10 15 -41 15 -160 0 -119 -3
-150 -15 -160 -8 -7 -15 -25 -15 -41 0 -15 -4 -31 -10 -34 -5 -3 -10 -19 -10
-36 0 -16 -4 -29 -10 -29 -5 0 -10 -9 -10 -19 0 -11 -4 -22 -9 -26 -14 -8 -41
-65 -41 -85 0 -24 -26 -73 -50 -95 -11 -10 -20 -26 -20 -37 0 -10 -4 -18 -10
-18 -5 0 -10 -8 -10 -18 0 -11 -9 -27 -20 -37 -21 -19 -50 -70 -50 -88 0 -5
-16 -24 -35 -43 -19 -18 -35 -39 -35 -47 0 -8 -20 -33 -45 -56 -25 -23 -45
-47 -45 -53 0 -14 -30 -48 -42 -48 -18 0 -7 36 17 54 14 10 25 26 25 36 0 9 9
25 20 35 11 10 20 24 20 30 0 7 7 18 15 25 8 7 15 21 15 31 0 11 5 19 10 19 6
0 10 8 10 18 0 11 9 27 20 37 22 20 50 71 50 92 0 7 5 13 10 13 6 0 10 9 10
19 0 11 4 22 9 26 13 7 41 64 41 82 0 7 5 13 10 13 6 0 10 8 10 19 0 10 6 24
14 30 8 7 12 20 9 30 -2 9 3 23 11 30 9 8 16 26 16 42 0 15 5 31 10 34 6 3 10
24 10 45 0 21 5 42 10 45 6 4 10 67 10 156 0 93 -4 149 -10 149 -5 0 -10 13
-10 29 0 17 -4 33 -10 36 -5 3 -10 19 -10 34 0 16 -10 37 -25 51 -14 13 -25
28 -25 34 0 14 -262 276 -276 276 -6 0 -21 11 -34 25 -13 14 -32 25 -42 25
-10 0 -18 5 -18 10 0 6 -9 10 -20 10 -20 0 -26 11 -13 23 12 13 61 7 77 -8z
m-3734 -567 c0 -14 -15 -35 -35 -53 -19 -16 -35 -37 -35 -47 0 -9 -4 -20 -10
-23 -5 -3 -10 -35 -10 -71 0 -36 4 -64 10 -64 6 0 10 -20 10 -45 0 -37 -3 -45
-19 -45 -10 0 -21 -7 -25 -15 -8 -22 -182 -22 -206 0 -15 14 -18 14 -30 0 -17
-20 -113 -21 -130 -1 -6 8 -30 16 -53 18 -46 3 -60 23 -25 37 13 5 84 70 158
145 74 75 140 136 146 136 6 0 17 7 24 15 9 10 32 15 76 15 34 0 66 5 69 10 3
6 24 10 46 10 34 0 39 -3 39 -22z m540 -88 c0 -5 20 -10 45 -10 25 0 45 -4 45
-10 0 -5 12 -10 28 -10 35 0 166 -127 157 -152 -3 -8 1 -22 9 -31 23 -22 23
-199 1 -217 -9 -7 -13 -20 -10 -29 5 -17 -106 -133 -152 -159 -26 -14 -173
-17 -173 -2 0 5 -30 10 -67 12 l-68 3 0 30 c0 26 4 30 29 33 17 2 42 18 61 38
28 29 39 34 79 34 49 0 86 -22 86 -51 0 -25 28 -45 42 -31 7 7 25 12 40 12 19
0 28 5 28 17 0 9 8 25 17 35 15 17 15 20 -10 46 -21 22 -27 38 -27 75 0 44 -3
49 -67 112 -61 58 -72 65 -108 65 -32 0 -48 -8 -81 -39 -23 -20 -44 -46 -46
-57 -3 -16 -13 -19 -68 -22 -35 -2 -68 -8 -72 -15 -10 -17 -48 21 -48 48 0 13
7 28 16 36 8 7 13 21 11 31 -3 10 4 31 16 46 12 15 27 36 33 47 6 11 21 25 33
31 12 6 32 21 45 33 12 11 30 21 39 21 9 0 17 5 17 10 0 6 20 10 45 10 25 0
45 5 45 10 0 6 7 10 15 10 8 0 15 -4 15 -10z m-380 -110 c0 -5 -5 -10 -11 -10
-5 0 -7 5 -4 10 3 6 8 10 11 10 2 0 4 -4 4 -10z m1630 -209 c0 -17 -4 -33 -10
-36 -5 -3 -10 -28 -10 -54 0 -31 -5 -53 -15 -61 -8 -7 -15 -21 -15 -31 0 -11
-4 -19 -10 -19 -5 0 -10 -20 -10 -45 0 -25 -4 -45 -10 -45 -5 0 -10 -13 -10
-29 0 -17 -4 -32 -9 -36 -21 -12 -41 -71 -41 -117 0 -26 -4 -48 -10 -48 -6 0
-10 -30 -10 -70 l0 -70 55 0 c52 0 55 -1 55 -25 0 -14 -4 -25 -10 -25 -5 0
-10 -8 -10 -18 0 -10 -11 -29 -25 -42 -14 -13 -25 -29 -25 -35 0 -6 -20 -31
-45 -55 -25 -24 -45 -50 -45 -56 0 -7 -31 -43 -70 -80 -38 -38 -70 -76 -70
-86 0 -10 -4 -18 -10 -18 -5 0 -10 -11 -10 -25 0 -17 5 -25 18 -25 10 0 24 -6
31 -12 11 -10 14 -10 18 0 3 6 17 12 32 12 15 0 31 4 37 9 13 13 154 18 153 6
-4 -35 -40 -85 -60 -85 -8 0 -39 -25 -69 -55 -30 -30 -59 -55 -65 -55 -6 0
-42 -31 -80 -70 -38 -38 -77 -70 -86 -70 -9 0 -22 -7 -29 -15 -7 -8 -18 -15
-24 -15 -7 0 -29 -17 -50 -39 -29 -30 -37 -45 -34 -67 l3 -29 120 -3 c93 -2
123 -6 137 -19 24 -22 23 -37 -7 -59 -14 -10 -25 -24 -25 -30 0 -15 -29 -72
-41 -79 -5 -4 -9 -15 -9 -26 0 -10 -4 -19 -10 -19 -5 0 -10 -6 -10 -13 0 -17
-51 -121 -62 -125 -4 -2 -8 -9 -8 -16 0 -10 -32 -78 -60 -126 -4 -8 -20 -41
-35 -72 -14 -32 -30 -60 -36 -63 -5 -4 -9 -15 -9 -26 0 -10 -4 -19 -10 -19 -5
0 -10 -6 -10 -13 0 -18 -28 -75 -41 -82 -5 -4 -9 -15 -9 -26 0 -10 -4 -19 -10
-19 -5 0 -10 -6 -10 -13 0 -18 -28 -75 -41 -82 -5 -4 -9 -15 -9 -26 0 -10 -4
-19 -10 -19 -5 0 -10 -6 -10 -13 0 -18 -28 -75 -41 -82 -5 -4 -9 -15 -9 -26 0
-10 -4 -19 -10 -19 -6 0 -10 -28 -10 -63 l0 -63 56 -54 c30 -30 62 -70 71 -87
8 -18 23 -33 32 -33 9 0 37 -20 61 -45 24 -25 49 -45 56 -45 6 0 17 -7 24 -15
7 -8 23 -15 36 -15 13 0 39 -9 59 -20 32 -18 54 -20 225 -20 115 0 191 4 195
10 3 6 19 10 36 10 16 0 29 5 29 10 0 6 17 10 39 10 22 0 44 6 51 15 7 8 18
15 24 15 16 0 114 49 122 61 3 5 18 9 34 9 16 0 32 5 35 10 3 6 13 10 21 10 8
0 28 16 45 35 17 19 38 35 45 35 8 0 27 11 42 25 15 14 32 25 39 25 7 0 13 6
13 14 0 18 128 146 146 146 8 0 14 6 14 13 0 7 11 24 25 39 14 15 25 34 25 42
0 8 11 23 25 34 14 11 25 27 25 35 0 9 5 19 10 22 6 3 10 15 10 26 0 10 5 19
10 19 6 0 10 9 10 20 0 11 7 23 15 26 8 4 15 14 15 24 0 11 5 22 10 25 6 3 10
15 10 26 0 10 5 19 10 19 6 0 10 17 10 39 0 22 6 44 15 51 8 7 15 25 15 41 0
15 5 31 10 34 6 3 10 28 10 55 0 27 5 52 10 55 6 3 10 39 10 79 0 53 4 77 15
86 12 10 15 48 15 224 0 206 4 236 32 236 4 0 8 -24 8 -54 0 -39 4 -55 15 -60
13 -5 15 -42 15 -249 0 -205 -2 -247 -15 -257 -10 -9 -15 -32 -15 -76 0 -36
-4 -64 -10 -64 -5 0 -10 -20 -10 -44 0 -25 -4 -48 -10 -51 -5 -3 -10 -24 -10
-46 0 -26 -5 -42 -15 -45 -8 -4 -15 -19 -15 -34 0 -16 -4 -32 -10 -35 -5 -3
-10 -16 -10 -29 0 -25 -25 -82 -41 -91 -5 -4 -9 -15 -9 -26 0 -10 -4 -19 -10
-19 -5 0 -10 -6 -10 -13 0 -18 -28 -75 -41 -82 -5 -4 -9 -15 -9 -26 0 -10 -4
-19 -10 -19 -5 0 -10 -8 -10 -18 0 -11 -9 -27 -20 -37 -20 -18 -50 -70 -50
-86 0 -14 -270 -279 -284 -279 -7 0 -21 -9 -31 -20 -10 -11 -23 -20 -30 -20
-6 0 -22 -11 -35 -25 -13 -14 -32 -25 -42 -25 -10 0 -18 -4 -18 -10 0 -5 -9
-10 -19 -10 -11 0 -23 -4 -26 -10 -3 -5 -28 -10 -54 -10 -31 0 -53 -5 -61 -15
-7 -8 -25 -15 -41 -15 -15 0 -31 -4 -34 -10 -4 -6 -77 -10 -186 -10 -113 0
-179 4 -179 10 0 6 -13 10 -29 10 -16 0 -34 7 -41 15 -8 10 -31 15 -66 15 -30
0 -54 5 -54 10 0 6 -8 10 -18 10 -10 0 -29 11 -42 25 -14 15 -35 25 -52 25
-15 0 -28 5 -28 10 0 6 -6 10 -13 10 -21 0 -72 28 -92 50 -10 11 -25 20 -34
20 -9 0 -23 9 -31 20 -8 11 -21 20 -30 20 -8 0 -51 36 -95 80 -71 72 -122 110
-146 110 -15 0 -209 200 -209 215 0 8 -7 15 -15 15 -9 0 -26 11 -39 25 -13 14
-30 25 -38 25 -8 0 -23 9 -33 20 -10 11 -24 20 -30 20 -7 0 -18 7 -25 15 -7 8
-21 15 -31 15 -11 0 -19 5 -19 10 0 6 -9 10 -19 10 -11 0 -23 5 -26 10 -3 6
-23 10 -44 10 -22 0 -44 6 -51 15 -7 8 -23 15 -36 15 -12 0 -26 5 -29 10 -3 6
-39 10 -80 10 -41 0 -77 5 -80 10 -3 6 -46 10 -95 10 -49 0 -92 -4 -95 -10 -3
-5 -39 -10 -80 -10 -41 0 -77 -4 -80 -10 -3 -5 -19 -10 -34 -10 -16 0 -34 -7
-41 -15 -7 -8 -25 -15 -41 -15 -16 0 -29 -4 -29 -10 0 -5 -13 -10 -28 -10 -16
0 -37 -9 -47 -20 -20 -22 -71 -50 -92 -50 -7 0 -13 -4 -13 -10 0 -5 -8 -10
-18 -10 -10 0 -38 -20 -62 -45 -24 -25 -49 -45 -55 -45 -6 0 -70 -58 -141
-130 -71 -71 -135 -130 -143 -130 -8 0 -34 -20 -58 -45 -44 -46 -83 -59 -83
-28 0 9 36 52 80 94 44 43 80 83 80 91 0 16 170 188 187 188 6 0 32 20 56 45
25 25 52 45 59 45 8 0 29 16 48 35 19 19 39 35 46 35 6 0 17 7 24 15 7 8 21
15 31 15 11 0 19 5 19 10 0 6 6 10 13 10 18 0 75 28 82 41 4 5 19 9 36 9 16 0
29 5 29 10 0 6 16 10 35 10 19 0 35 5 35 10 0 6 31 10 74 10 53 0 77 4 86 15
9 11 32 15 80 15 48 0 71 -4 80 -15 9 -11 33 -15 86 -15 40 0 76 -4 79 -10 3
-5 26 -10 51 -10 l44 0 0 45 c0 25 -4 45 -10 45 -6 0 -10 31 -10 74 0 53 -4
77 -15 86 -8 7 -15 25 -15 41 0 15 -4 31 -10 34 -5 3 -10 19 -10 35 0 16 -4
32 -10 35 -5 3 -10 32 -10 64 0 40 -5 63 -15 71 -10 8 -15 31 -15 66 0 30 -4
54 -10 54 -5 0 -10 9 -10 19 0 11 -4 23 -10 26 -5 3 -10 28 -10 54 0 31 -5 53
-15 61 -9 7 -15 29 -15 51 0 21 -4 41 -10 44 -5 3 -10 19 -10 35 0 16 -4 32
-10 35 -5 3 -10 19 -10 35 0 16 5 32 10 35 6 3 10 13 10 21 0 25 110 114 141
114 5 0 35 27 66 60 32 33 64 60 72 60 8 0 129 115 269 255 141 140 261 255
267 255 6 0 22 11 35 25 13 14 34 25 47 25 13 0 35 12 50 26 14 14 35 30 47
35 11 5 35 18 51 28 17 11 38 20 48 20 9 1 17 6 17 11 0 6 8 10 18 10 11 0 27
9 37 20 20 22 71 50 90 50 7 0 21 11 31 25 12 16 29 25 46 25 15 0 30 5 33 10
3 6 14 10 24 10 10 0 27 11 37 25 10 14 24 25 30 25 26 0 73 33 134 95 35 36
71 65 80 66 8 0 49 36 90 79 83 87 120 103 120 51z m-2069 -18 c8 -51 4 -58
-35 -61 -21 -2 -43 1 -49 7 -6 6 -19 11 -29 11 -13 0 -18 8 -18 25 0 24 2 25
65 25 36 0 66 -3 66 -7z m241 -10 c38 -34 11 -73 -51 -73 -22 0 -43 5 -46 10
-3 6 -14 10 -24 10 -24 0 -55 35 -48 55 9 22 143 21 169 -2z m388 -39 c0 -11
-29 -34 -43 -34 -8 0 -20 -7 -27 -15 -7 -8 -19 -15 -26 -15 -14 0 -16 6 -16
35 0 8 0 20 1 25 1 10 111 15 111 4z m-823 -29 c16 -8 38 -24 48 -35 10 -11
26 -20 37 -20 10 0 18 -4 18 -10 0 -5 9 -10 19 -10 11 0 22 -4 26 -9 7 -13 64
-41 82 -41 7 0 13 -4 13 -10 0 -5 13 -10 28 -10 17 0 38 -10 52 -25 13 -14 32
-25 42 -25 10 0 18 -4 18 -10 0 -5 9 -10 19 -10 11 0 22 -4 26 -9 7 -13 64
-41 82 -41 7 0 13 -4 13 -10 0 -5 8 -10 19 -10 10 0 24 -7 31 -15 21 -25 53
-17 85 20 35 41 67 45 120 15 20 -11 42 -20 49 -20 8 0 16 -7 20 -15 3 -9 18
-15 35 -15 16 0 33 -4 36 -10 3 -5 15 -10 26 -10 35 0 20 -34 -41 -95 -33 -33
-60 -64 -60 -70 0 -14 -282 -295 -296 -295 -6 0 -17 -7 -24 -15 -7 -8 -21 -15
-31 -15 -11 0 -19 -4 -19 -10 0 -5 -8 -10 -18 -10 -11 0 -27 -9 -37 -20 -20
-22 -71 -50 -92 -50 -7 0 -13 -4 -13 -10 0 -5 -13 -10 -28 -10 -15 0 -33 -5
-40 -12 -10 -10 -17 -7 -34 10 -20 20 -21 22 -5 40 9 10 17 25 17 33 0 8 9 21
20 29 11 8 20 22 20 32 0 9 4 19 9 23 21 12 41 71 41 117 0 26 5 48 10 48 6 0
10 15 10 34 0 19 -4 38 -10 41 -5 3 -10 28 -10 55 0 27 -4 52 -10 55 -5 3 -10
15 -10 26 0 10 -4 19 -8 19 -5 0 -16 19 -26 43 -30 68 -116 147 -163 147 -7 0
-13 5 -13 10 0 6 -9 10 -19 10 -11 0 -22 4 -26 9 -10 17 -68 41 -98 41 -42 0
-67 26 -67 68 0 66 57 92 127 57z m-189 -257 c7 -7 12 -29 12 -49 0 -20 7 -42
15 -49 9 -7 15 -29 15 -51 0 -30 -4 -39 -22 -44 -13 -4 -40 -23 -60 -43 -36
-34 -38 -40 -38 -97 0 -56 3 -64 30 -88 22 -20 41 -27 69 -27 22 0 41 -5 44
-12 4 -10 7 -10 18 0 7 6 21 12 31 12 10 0 18 5 18 10 0 6 8 10 17 10 36 0 53
30 53 95 0 53 -4 65 -25 85 -14 13 -25 35 -25 50 0 14 -9 32 -20 40 -17 12
-20 26 -20 92 l0 78 29 0 c17 0 33 -4 36 -10 3 -5 19 -10 34 -10 16 0 36 -9
47 -21 10 -12 29 -25 42 -30 12 -5 22 -14 22 -22 0 -7 16 -28 35 -47 23 -22
33 -40 30 -51 -3 -9 1 -24 10 -32 22 -22 22 -199 0 -217 -9 -7 -13 -21 -10
-31 4 -12 -6 -29 -29 -52 -19 -19 -36 -43 -38 -53 -2 -10 -12 -20 -22 -22 -10
-2 -30 -15 -43 -28 -13 -13 -35 -24 -48 -24 -13 0 -27 -4 -30 -10 -3 -5 -19
-10 -35 -10 -16 0 -32 -4 -35 -10 -3 -5 -19 -10 -35 -10 -16 0 -32 5 -35 10
-3 6 -24 10 -45 10 -21 0 -42 5 -45 10 -3 6 -16 10 -29 10 -22 0 -156 118
-156 138 0 14 -30 71 -41 77 -5 4 -9 48 -9 99 0 71 4 97 15 106 8 7 15 21 15
31 0 11 5 19 10 19 6 0 10 8 10 17 0 10 28 46 62 80 46 47 70 63 90 63 15 0
30 5 33 10 8 14 38 13 53 -2z m274 -905 c15 -13 18 -32 18 -105 0 -52 -4 -88
-10 -88 -5 0 -10 -20 -10 -45 0 -25 -4 -45 -10 -45 -5 0 -10 -13 -10 -29 0
-16 -7 -34 -15 -41 -10 -8 -15 -31 -15 -66 0 -30 -4 -54 -10 -54 -5 0 -10 -20
-10 -45 0 -25 -4 -45 -9 -45 -5 0 -11 -10 -13 -22 -2 -15 -11 -24 -25 -26 -13
-2 -23 -8 -23 -13 0 -5 -16 -9 -35 -9 -19 0 -35 -4 -35 -10 0 -5 -25 -10 -55
-10 -40 0 -57 -4 -61 -15 -4 -8 -12 -15 -19 -15 -22 0 -70 -29 -100 -60 -16
-16 -35 -30 -42 -30 -8 0 -25 -11 -39 -25 -14 -14 -31 -25 -39 -25 -8 0 -15
-7 -15 -16 0 -9 -20 -36 -45 -60 -25 -23 -45 -49 -45 -57 0 -8 -7 -20 -15 -27
-9 -7 -15 -29 -15 -51 0 -21 -4 -41 -10 -44 -5 -3 -10 -19 -10 -36 0 -16 -4
-29 -10 -29 -5 0 -10 -8 -10 -19 0 -10 -7 -24 -15 -31 -10 -8 -15 -30 -15 -61
0 -26 -4 -51 -10 -54 -5 -3 -10 -19 -10 -36 0 -16 -4 -29 -9 -29 -5 0 -11 -10
-13 -22 -2 -16 -11 -24 -28 -26 -27 -3 -66 -21 -115 -52 -16 -10 -38 -19 -47
-19 -10 -1 -18 -5 -18 -10 0 -5 -15 -16 -33 -24 -18 -9 -41 -25 -52 -37 -10
-11 -24 -20 -32 -20 -7 0 -27 -16 -44 -35 -17 -19 -38 -35 -46 -35 -9 0 -35
-20 -59 -45 -23 -25 -49 -45 -57 -45 -7 0 -24 -11 -37 -25 -13 -14 -28 -25
-35 -25 -6 0 -37 -27 -70 -60 -58 -58 -61 -60 -112 -60 -29 0 -53 -4 -53 -10
0 -5 -9 -10 -19 -10 -11 0 -23 -4 -26 -10 -3 -5 -28 -10 -54 -10 -31 0 -53 -5
-61 -15 -7 -8 -25 -15 -41 -15 -15 0 -31 -4 -34 -10 -3 -5 -21 -10 -39 -10
-18 0 -47 -7 -64 -16 -25 -12 -32 -22 -32 -45 0 -27 -2 -29 -40 -29 -30 0 -48
7 -68 25 -15 14 -32 25 -38 25 -5 0 -23 14 -39 30 -16 17 -34 30 -40 30 -6 0
-22 11 -35 25 -13 14 -32 25 -42 25 -10 0 -18 7 -18 17 0 9 -7 25 -16 34 -15
17 -15 21 12 53 16 19 43 41 60 50 16 8 38 24 49 36 10 11 23 20 30 20 6 0 22
11 35 25 13 14 32 25 42 25 10 0 18 7 18 17 0 21 29 53 47 53 18 0 43 24 43
42 0 19 122 138 142 138 10 0 18 7 18 18 0 20 121 142 142 142 16 0 48 35 48
52 0 17 101 118 118 118 17 0 42 25 42 42 0 19 122 138 142 138 10 0 18 7 18
18 0 21 118 138 145 143 11 3 21 13 23 23 5 25 26 46 45 46 8 0 20 7 27 15 7
8 18 15 24 15 7 0 32 20 56 45 24 25 49 45 55 45 6 0 22 11 35 25 13 14 32 25
42 25 10 0 18 5 18 10 0 6 8 10 18 10 10 0 33 16 52 35 19 19 39 35 45 35 7 0
20 9 29 19 10 11 28 22 42 25 13 4 24 11 24 16 0 6 8 10 18 10 10 0 31 14 47
30 31 32 78 60 102 60 7 0 13 5 13 10 0 6 8 10 18 10 10 0 49 32 87 70 46 47
77 70 93 70 12 0 33 11 46 25 13 14 29 25 37 25 7 0 23 10 35 21 37 35 66 47
113 48 28 1 51 -5 63 -16z m-1967 -1137 c33 -33 -53 -115 -93 -89 -36 22 -38
41 -7 73 31 33 76 40 100 16z m2240 -506 c3 -5 26 -10 51 -10 24 0 44 -4 44
-10 0 -5 24 -10 54 -10 45 0 56 -4 72 -25 10 -14 24 -25 30 -25 15 0 72 -29
79 -41 4 -5 14 -9 23 -9 9 0 30 -16 47 -35 16 -19 37 -35 46 -35 18 0 69 -50
69 -68 0 -7 25 -37 55 -67 30 -29 55 -60 55 -68 0 -7 9 -22 20 -32 22 -20 50
-71 50 -90 0 -7 7 -15 15 -19 8 -3 15 -12 15 -20 0 -9 9 -31 20 -51 11 -20 20
-42 20 -49 0 -8 7 -16 15 -20 8 -3 15 -15 15 -26 0 -11 5 -20 10 -20 6 0 10
-9 10 -19 0 -11 5 -23 10 -26 6 -3 10 -30 10 -60 0 -38 4 -54 15 -59 12 -4 15
-18 14 -58 -2 -33 2 -53 9 -56 7 -2 12 -17 12 -32 0 -16 5 -32 10 -35 6 -3 10
-34 10 -69 0 -34 5 -67 12 -74 8 -8 11 -51 9 -135 -2 -102 0 -126 13 -136 9
-8 16 -26 16 -42 0 -15 5 -31 10 -34 6 -4 10 -108 10 -281 0 -176 -4 -274 -10
-274 -5 0 -10 -8 -10 -19 0 -10 -7 -25 -16 -32 -12 -10 -15 -25 -11 -56 4 -34
0 -45 -17 -60 -48 -41 -61 -43 -262 -43 -189 0 -197 1 -215 22 -25 28 -25 29
16 68 19 19 35 39 35 46 0 6 7 17 15 24 8 7 15 25 15 41 0 15 5 31 10 34 6 3
10 19 10 36 0 16 5 29 10 29 6 0 10 37 10 90 l0 91 -40 39 c-23 22 -45 40 -50
40 -5 0 -25 9 -45 20 -20 11 -46 20 -59 20 -13 0 -29 7 -36 15 -11 13 -67 15
-395 15 -328 0 -384 -2 -395 -15 -7 -8 -23 -15 -36 -15 -12 0 -26 -4 -29 -10
-3 -5 -15 -10 -26 -10 -10 0 -19 -4 -19 -10 0 -5 -8 -10 -17 -10 -10 0 -37
-19 -60 -42 l-43 -42 0 -94 c0 -68 4 -97 15 -108 8 -8 12 -21 8 -30 -3 -8 1
-22 8 -32 21 -25 39 -60 39 -73 0 -6 16 -26 35 -45 39 -37 42 -49 18 -76 -14
-15 -32 -18 -130 -18 -73 0 -120 4 -133 12 -16 10 -24 10 -40 0 -24 -14 -86
-16 -95 -2 -3 6 -22 10 -42 10 -56 0 -73 22 -73 95 0 43 -5 66 -15 75 -13 10
-15 54 -15 275 0 221 2 265 15 275 8 7 15 25 15 41 0 15 5 31 10 34 6 4 10 65
10 150 0 85 4 146 10 150 6 3 10 32 10 64 0 40 5 63 15 71 8 7 15 25 15 41 0
15 5 31 10 34 6 3 10 28 10 55 0 27 5 52 10 55 6 3 10 30 10 60 0 38 4 54 15
59 8 3 15 15 15 26 0 11 5 20 10 20 6 0 10 9 10 19 0 11 5 23 10 26 6 3 10 14
10 25 0 10 7 20 15 24 8 3 15 15 15 26 0 11 5 20 10 20 6 0 10 9 10 19 0 11 5
23 10 26 6 3 10 14 10 25 0 10 7 20 15 24 8 3 15 15 15 26 0 11 5 20 10 20 6
0 10 8 10 17 0 19 278 303 296 303 6 0 17 7 24 15 7 8 19 15 27 15 7 0 23 9
35 20 12 11 32 20 44 20 12 0 27 7 34 15 7 9 29 15 51 15 21 0 41 5 44 10 3 6
24 10 45 10 21 0 42 5 45 10 3 6 35 10 70 10 35 0 67 -4 70 -10z m-761 -2435
c4 -13 35 -15 185 -15 109 0 182 -4 186 -10 4 -6 123 -10 326 -10 206 0 319 4
319 10 0 6 66 10 179 10 146 0 181 3 191 15 10 12 37 15 120 15 137 0 144 -10
68 -87 -29 -29 -59 -53 -66 -53 -8 0 -29 -16 -48 -35 -18 -19 -39 -35 -47 -35
-8 0 -22 -9 -32 -20 -20 -22 -71 -50 -92 -50 -7 0 -13 -4 -13 -10 0 -5 -9 -10
-19 -10 -11 0 -22 -4 -26 -9 -7 -13 -64 -41 -82 -41 -7 0 -13 -4 -13 -10 0 -5
-13 -10 -29 -10 -16 0 -34 -7 -41 -15 -7 -9 -29 -15 -51 -15 -21 0 -41 -4 -44
-10 -3 -5 -39 -10 -80 -10 -41 0 -77 -4 -80 -10 -4 -6 -58 -10 -130 -10 -72 0
-126 4 -130 10 -3 6 -35 10 -71 10 -36 0 -64 4 -64 10 0 6 -17 10 -39 10 -22
0 -44 6 -51 15 -7 8 -23 15 -35 15 -20 0 -70 20 -125 51 -58 32 -116 59 -126
59 -6 0 -20 11 -30 25 -10 14 -26 25 -34 25 -9 0 -31 16 -50 35 -19 19 -39 35
-45 35 -21 0 -118 108 -112 124 9 23 222 24 231 1z"/>
</g>
</svg>
